<svg width="252" height="82" viewBox="0 0 252 82" fill="none" xmlns="http://www.w3.org/2000/svg">
<path d="M58 0C43.986 0 32.625 11.173 32.625 24.957V49.557C46.639 49.557 58 38.383 58 24.6V0Z" fill="#32AE5D"/>
<path d="M0 32.443C14.014 32.443 25.375 43.617 25.375 57.4V82C11.361 82 0 70.827 0 57.043V32.443Z" fill="#32AE5D"/>
<path d="M0 0C14.014 0 25.375 11.173 25.375 24.957V32.443C11.361 32.443 0 21.27 0 7.487V0Z" fill="#32AE5D"/>
<path d="M58 49.557C43.986 49.557 32.625 60.73 32.625 74.513V82C46.639 82 58 70.827 58 57.043V49.557Z" fill="#32AE5D"/>
<path d="M216.044 68.96V12.96H231.644C241.164 12.96 248.524 18.4 248.524 27.84C248.524 32.88 246.204 36.48 242.604 38.8C247.964 41.2 251.724 45.92 251.724 52.88C251.724 63.44 243.324 68.96 233.244 68.96H216.044ZM224.604 60.4H233.244C238.604 60.4 243.084 57.36 243.084 52.16C243.084 46.72 239.164 43.92 233.244 43.92H224.604V60.4ZM224.604 35.6H231.644C236.444 35.6 240.044 33.2 240.044 28.56C240.044 23.92 236.444 21.52 231.644 21.52H224.604V35.6Z" fill="#32AE5D"/>
<path d="M198.452 68.96V28.4H206.213V68.96H198.452ZM197.812 16.56C197.812 14.08 199.893 12.08 202.293 12.08C204.773 12.08 206.853 14.08 206.853 16.56C206.853 19.04 204.773 21.04 202.293 21.04C199.893 21.04 197.812 19.04 197.812 16.56Z" fill="#32AE5D"/>
<path d="M169.775 68.96V28.4H177.615V34.96C180.575 30.08 185.215 27.52 191.375 27.52V35.36C182.655 35.36 177.615 39.6 177.615 52.4V68.96H169.775Z" fill="#32AE5D"/>
<path d="M134.951 69.92C118.951 69.92 105.831 56.96 105.831 40.96C105.831 24.96 118.951 12 134.951 12C144.071 12 152.231 16.24 157.671 22.88L150.871 28C147.031 23.52 141.271 20.56 134.951 20.56C123.671 20.56 114.391 29.68 114.391 40.96C114.391 52.24 123.671 61.36 134.951 61.36C144.791 61.36 150.791 55.68 153.031 47.2H133.511V39.36H162.551C162.551 56.72 152.231 69.92 134.951 69.92Z" fill="#32AE5D"/>
<path d="M90.64 68.96V28.4H98.4V68.96H90.64ZM90 16.56C90 14.08 92.08 12.08 94.48 12.08C96.96 12.08 99.04 14.08 99.04 16.56C99.04 19.04 96.96 21.04 94.48 21.04C92.08 21.04 90 19.04 90 16.56Z" fill="#32AE5D"/>
</svg>
